<?xml version="1.0" encoding="UTF-8"?>
<!--Generator: Apple Native CoreSVG 326-->
<!DOCTYPE svg
PUBLIC "-//W3C//DTD SVG 1.1//EN"
       "http://www.w3.org/Graphics/SVG/1.1/DTD/svg11.dtd">
<svg version="1.1" xmlns="http://www.w3.org/2000/svg" xmlns:xlink="http://www.w3.org/1999/xlink" viewBox="0 0 19.1488 19.1588">
 <g>
  <rect height="19.1588" opacity="0" width="19.1488" x="0" y="0"/>
  <path d="M19.1488 9.58562C19.1488 14.8491 14.8391 19.1588 9.57327 19.1588C4.30978 19.1588 9.73745e-05 14.8491 9.73745e-05 9.58562C9.73745e-05 4.32215 4.30978 0.0124615 9.57327 0.0124615C14.8391 0.0124615 19.1488 4.32215 19.1488 9.58562ZM9.57327 11.6581C9.05096 11.6581 8.54877 11.6355 8.07916 11.603C8.30916 13.8986 8.90908 15.2938 9.59338 15.2938C12.4225 15.2837 14.7977 13.1616 15.2172 10.449C14.2877 11.1607 12.2063 11.6581 9.57327 11.6581ZM8.70985 15.2271C8.18274 14.5508 7.77304 13.252 7.59572 11.5608C5.90449 11.3835 4.60812 10.9738 3.93176 10.449C4.31189 12.9013 6.25761 14.847 8.70985 15.2271ZM7.99675 9.58562C7.99675 10.1228 8.01686 10.6374 8.04943 11.1094C8.52146 11.1396 9.03851 11.1621 9.57327 11.1621C13.0072 11.1621 15.2613 10.4271 15.2814 9.57557C15.2814 6.45117 12.7053 3.87746 9.58093 3.87746C8.72938 3.89759 7.99675 6.15166 7.99675 9.58562ZM3.86511 9.56551C3.86511 10.2498 5.25788 10.8497 7.55354 11.0797C7.52097 10.6101 7.49844 10.1079 7.49844 9.58562C7.49844 6.95263 7.99821 4.87119 8.70985 3.94413C5.99727 4.36118 3.87516 6.73883 3.86511 9.56551Z" fill="white" fill-opacity="0.85"/>
 </g>
</svg>
