<?xml version="1.0" encoding="UTF-8"?>
<!--Generator: Apple Native CoreSVG 326-->
<!DOCTYPE svg
PUBLIC "-//W3C//DTD SVG 1.1//EN"
       "http://www.w3.org/Graphics/SVG/1.1/DTD/svg11.dtd">
<svg version="1.1" xmlns="http://www.w3.org/2000/svg" xmlns:xlink="http://www.w3.org/1999/xlink" viewBox="0 0 21.5751 25.6786">
 <g>
  <rect height="25.6786" opacity="0" width="21.5751" x="0" y="0"/>
  <path d="M13.0383 6.7047C13.0383 7.60783 13.568 8.14182 14.4712 8.14182L20.3426 8.14182L20.3496 17.6203C20.3496 19.3492 19.4493 20.2578 17.7231 20.2578L16.4872 20.2578L16.4872 13.6817C16.4899 12.8731 16.2008 12.2141 15.5485 11.5563L9.65163 5.63909C8.91568 4.89494 8.2184 4.53439 7.00433 4.53439L5.60094 4.53439L5.60041 3.47152C5.60041 1.77541 6.53166 0.855877 8.23402 0.855877L13.0383 0.855877ZM14.4274 1.43988L19.7043 6.75272C19.9012 6.94687 20.0571 7.11484 20.0946 7.29376L14.5301 7.29376C14.0973 7.29376 13.8919 7.09259 13.8919 6.65704L13.8891 1.0594C14.0653 1.09846 14.243 1.25003 14.4274 1.43988Z" fill="white" fill-opacity="0.85"/>
  <path d="M9.08948 12.8079L15.384 12.8079C15.3399 12.5887 15.1575 12.3848 14.9387 12.1676L9.03482 6.2434C8.81333 6.02191 8.59692 5.8344 8.39457 5.78323L8.39457 12.1129C8.39457 12.5856 8.61683 12.8079 9.08948 12.8079ZM3.49769 24.8075L12.9867 24.8075C14.7129 24.8075 15.6133 23.8989 15.6133 22.1699L15.6133 13.6817L9.00081 13.6817C8.00822 13.6817 7.52072 13.1774 7.52072 12.1875L7.52072 5.4055L3.49769 5.4055C1.79533 5.4055 0.871112 6.31136 0.871112 8.04302L0.871112 22.1699C0.871112 23.9016 1.77424 24.8075 3.49769 24.8075Z" fill="white" fill-opacity="0.85"/>
 </g>
</svg>
