<?xml version="1.0" encoding="UTF-8"?>
<!--Generator: Apple Native CoreSVG 326-->
<!DOCTYPE svg
PUBLIC "-//W3C//DTD SVG 1.1//EN"
       "http://www.w3.org/Graphics/SVG/1.1/DTD/svg11.dtd">
<svg version="1.1" xmlns="http://www.w3.org/2000/svg" xmlns:xlink="http://www.w3.org/1999/xlink" viewBox="0 0 16.5802 3.11604">
 <g>
  <rect height="3.11604" opacity="0" width="16.5802" x="0" y="0"/>
  <path d="M14.6657 3.10354C15.5223 3.10354 16.2188 2.40978 16.2188 1.55314C16.2188 0.69649 15.5223 0 14.6657 0C13.809 0 13.1126 0.69649 13.1126 1.55314C13.1126 2.40978 13.809 3.10354 14.6657 3.10354Z" fill="white" fill-opacity="0.85"/>
  <path d="M8.1059 3.10354C8.96255 3.10354 9.6563 2.40978 9.6563 1.55314C9.6563 0.69649 8.96255 0 8.1059 0C7.25628 0 6.55979 0.69649 6.55979 1.55314C6.55979 2.40978 7.25628 3.10354 8.1059 3.10354Z" fill="white" fill-opacity="0.85"/>
  <path d="M1.55314 3.10354C2.40978 3.10354 3.10354 2.40978 3.10354 1.55314C3.10354 0.69649 2.40978 0 1.55314 0C0.69649 0 0 0.69649 0 1.55314C0 2.40978 0.69649 3.10354 1.55314 3.10354Z" fill="white" fill-opacity="0.85"/>
 </g>
</svg>
